<svg width="714" height="713" viewBox="0 0 714 713" fill="none" xmlns="http://www.w3.org/2000/svg">
<path fill-rule="evenodd" clip-rule="evenodd" d="M345.607 38.7357C423.403 40.4258 439.795 151.635 495.694 205.769C553.533 261.781 670.98 275.367 673.068 355.855C675.15 436.113 561.785 458.525 503.688 513.935C448.305 566.757 420.553 652.671 345.607 668.174C260.428 685.793 164.728 659.692 105.075 596.388C46.5011 534.23 33.6748 439.425 51.2981 355.855C66.21 285.143 139.695 252.073 188.855 199.103C241.716 142.144 267.917 37.0479 345.607 38.7357Z" fill="#E0BB20"/>
<g filter="url(#filter0_d_11_8)">
<path fill-rule="evenodd" clip-rule="evenodd" d="M316.344 66.9894C381.001 81.8082 409.796 150.162 460.261 193.214C519.532 243.779 612.295 262.022 632.996 337.131C657.047 424.389 633.442 526.227 569.78 590.567C505.914 655.112 407.145 657.137 316.344 657.15C225.524 657.164 109.548 668.526 62.8327 590.642C16.3332 513.118 119.905 427.42 124.394 337.131C128.395 256.646 40.1675 173.321 86.8437 107.631C133.624 41.7942 237.621 48.9469 316.344 66.9894Z" fill="#EDD264"/>
</g>
<g filter="url(#filter1_d_11_8)">
<path fill-rule="evenodd" clip-rule="evenodd" d="M479.986 124.43C534.87 157.725 500.773 243.83 518.411 305.509C536.661 369.33 614.975 427.468 583.312 485.754C551.74 543.874 461.515 513.102 397.183 528.671C335.858 543.513 280.641 593.362 220.71 573.508C152.596 550.944 94.9756 492.847 78.4322 423.076C62.1883 354.568 92.0765 281.637 139.091 229.283C178.872 184.984 244.995 191.701 301.937 174.187C363.165 155.354 425.176 91.1796 479.986 124.43Z" fill="#E9D585"/>
</g>
<defs>
<filter id="filter0_d_11_8" x="0.854736" y="8.53214" width="691.371" height="703.205" filterUnits="userSpaceOnUse" color-interpolation-filters="sRGB">
<feFlood flood-opacity="0" result="BackgroundImageFix"/>
<feColorMatrix in="SourceAlpha" type="matrix" values="0 0 0 0 0 0 0 0 0 0 0 0 0 0 0 0 0 0 127 0" result="hardAlpha"/>
<feOffset dy="4"/>
<feGaussianBlur stdDeviation="25"/>
<feComposite in2="hardAlpha" operator="out"/>
<feColorMatrix type="matrix" values="0 0 0 0 0 0 0 0 0 0 0 0 0 0 0 0 0 0 0.25 0"/>
<feBlend mode="normal" in2="BackgroundImageFix" result="effect1_dropShadow_11_8"/>
<feBlend mode="normal" in="SourceGraphic" in2="effect1_dropShadow_11_8" result="shape"/>
</filter>
<filter id="filter1_d_11_8" x="23.9693" y="69.0285" width="616.797" height="563.086" filterUnits="userSpaceOnUse" color-interpolation-filters="sRGB">
<feFlood flood-opacity="0" result="BackgroundImageFix"/>
<feColorMatrix in="SourceAlpha" type="matrix" values="0 0 0 0 0 0 0 0 0 0 0 0 0 0 0 0 0 0 127 0" result="hardAlpha"/>
<feOffset dy="4"/>
<feGaussianBlur stdDeviation="25"/>
<feComposite in2="hardAlpha" operator="out"/>
<feColorMatrix type="matrix" values="0 0 0 0 0 0 0 0 0 0 0 0 0 0 0 0 0 0 0.25 0"/>
<feBlend mode="normal" in2="BackgroundImageFix" result="effect1_dropShadow_11_8"/>
<feBlend mode="normal" in="SourceGraphic" in2="effect1_dropShadow_11_8" result="shape"/>
</filter>
</defs>
</svg>
